<?xml version="1.0" encoding="UTF-8" standalone="no"?>
<!-- Created with Inkscape (http://www.inkscape.org/) -->

<svg
   width="37.313549mm"
   height="33.233482mm"
   viewBox="0 0 37.313549 33.233482"
   version="1.1"
   id="svg1"
   xml:space="preserve"
   xmlns="http://www.w3.org/2000/svg"
   xmlns:svg="http://www.w3.org/2000/svg"><defs
     id="defs1" /><g
     id="layer1"
     transform="translate(-109.64739,-58.956614)"><path
       style="display:inline;fill:#0a0a0a;stroke:none"
       d="m 113.35155,76.844252 c -1.8295,4.61762 -3.70416,10.3537 -3.70416,15.34584 2.31173,-0.79255 2.11071,-2.39901 2.61276,-4.49792 0.76097,-3.18133 1.26014,-7.41609 2.80998,-10.29793 1.01021,-1.87845 3.58272,-0.66166 4.63142,-2.93124 l -3.96875,0.52917 c 0.6208,-5.08355 5.6748,-6.1196 8.32213,-10.05417 2.33636,-3.47239 -0.33515,-7.85382 -4.35215,-5.12997 -3.13934,2.12873 -3.22974,7.00267 -4.69635,10.15216 -0.90142,1.93572 -3.73235,2.40754 -4.92787,4.24313 -0.88031,1.35162 -0.17318,2.72385 1.42091,2.7671 0.61183,0.0166 1.23804,-0.10742 1.85208,-0.12617 m 3.96875,-7.9375 c 0.20086,-1.64476 2.01454,-8.92534 4.93522,-6.6746 2.34225,1.80499 -3.61453,6.0492 -4.93522,6.6746 m 28.31042,-6.87916 c -0.42401,6.31252 -0.94112,12.72171 -3.76909,18.52083 -0.80549,1.65176 -1.65982,3.22635 -2.66911,4.7625 -0.33982,0.51721 -1.07545,1.35885 -0.71413,2.0248 0.51918,0.95687 1.57563,0.0555 2.01133,-0.44342 1.24729,-1.42834 2.30211,-3.29148 3.06475,-5.02096 2.85803,-6.48125 3.484,-12.89777 3.39917,-19.84375 h -1.32292 m -24.60625,25.92916 c 2.42535,-0.11708 1.43185,-3.00106 1.6561,-4.7625 0.64868,-5.09516 1.58684,-10.21721 4.02142,-14.81666 0.57359,-1.08364 3.28586,-4.34813 2.7769,-5.49868 -0.49259,-1.11355 -1.62677,-0.0337 -2.04685,0.47772 -1.28157,1.56028 -2.31602,3.4561 -3.15662,5.28554 -2.85458,6.21254 -3.2555,12.63126 -3.25095,19.31458 m 18.52083,-16.40416 c -3.99085,0 -7.77175,1.56916 -10.03701,5.02708 -1.08807,1.66094 -1.72153,4.38222 -0.19232,6.0107 1.97711,2.10544 8.18601,0.74124 8.23026,-2.54907 0.01,-0.74505 -0.67995,-0.69234 -1.17715,-0.45567 -1.78847,0.85131 -6.30601,2.61099 -4.74045,-1.68304 0.20852,-0.57194 0.52576,-1.10689 0.89909,-1.58628 1.60789,-2.06462 6.64618,-2.56566 7.01758,-4.76372 m -25.13541,1.05833 -0.52917,2.38125 c -2.59539,-0.12384 -1.1104,-1.90374 0.52917,-2.38125 z"
       id="path2" /></g></svg>
